<svg width="109" height="106" viewBox="0 0 109 106" fill="none" xmlns="http://www.w3.org/2000/svg">
<path d="M33.2523 105.759C29.738 105.759 26.4678 104.831 23.4416 102.977C20.513 101.219 18.1213 98.8277 16.2666 95.8015C14.5094 92.7753 13.6309 89.4563 13.6309 85.8444C13.6309 80.5729 15.5832 76.0825 19.488 72.3729C23.4904 68.6634 28.469 66.5158 34.4237 65.9301L32.9594 61.2444C31.0071 62.3182 28.7618 63.2456 26.2237 64.0265C23.7832 64.8075 21.4404 65.1979 19.1951 65.1979C15.6809 65.1979 12.5082 64.3194 9.67729 62.5622C6.94396 60.7075 4.74753 58.3158 3.088 55.3872C1.42848 52.361 0.598717 49.1396 0.598717 45.7229C0.598717 42.0134 1.47729 38.6944 3.23443 35.7658C5.08919 32.7396 7.48086 30.3479 10.4094 28.5908C13.338 26.8336 16.5594 25.9551 20.0737 25.9551C24.0761 25.9551 27.9321 27.3705 31.6416 30.2015C35.3511 33.0325 38.0356 36.4491 39.6951 40.4515L43.5023 37.5229C40.8666 35.0825 38.719 32.3979 37.0594 29.4694C35.4975 26.4432 34.7166 23.5634 34.7166 20.8301C34.7166 17.1205 35.5951 13.8015 37.3523 10.8729C39.1094 7.84674 41.4523 5.45507 44.3809 3.69793C47.4071 1.84317 50.7261 0.915785 54.338 0.915785C57.9499 0.915785 61.269 1.84317 64.2952 3.69793C67.3213 5.45507 69.713 7.84674 71.4702 10.8729C73.3249 13.8991 74.2523 17.2182 74.2523 20.8301C74.2523 23.5634 73.4225 26.492 71.763 29.6158C70.1035 32.642 68.0047 35.2777 65.4666 37.5229L69.2737 40.4515C70.9332 36.3515 73.569 32.9348 77.1809 30.2015C80.8904 27.3705 84.7952 25.9551 88.8952 25.9551C92.4094 25.9551 95.6309 26.8336 98.5594 28.5908C101.586 30.3479 103.977 32.7396 105.734 35.7658C107.492 38.6944 108.37 42.0134 108.37 45.7229C108.37 49.1396 107.492 52.361 105.734 55.3872C104.075 58.3158 101.83 60.7075 98.9987 62.5622C96.2654 64.3194 93.2392 65.1979 89.9201 65.1979C85.5273 65.1979 80.8904 63.8801 76.0094 61.2444L74.5452 65.9301C78.4499 66.3206 81.9642 67.4432 85.088 69.2979C88.2118 71.0551 90.7011 73.3979 92.5559 76.3265C94.4106 79.1575 95.338 82.3301 95.338 85.8444C95.338 89.3586 94.4106 92.6289 92.5559 95.6551C90.7987 98.6813 88.4559 101.122 85.5273 102.977C82.5987 104.831 79.3285 105.759 75.7166 105.759C70.1523 105.759 65.5154 103.855 61.8059 100.048C58.0963 96.1432 56.2416 91.1646 56.2416 85.1122C56.2416 82.867 56.4856 80.7682 56.9737 78.8158H51.9951C52.1904 79.792 52.3368 80.817 52.4344 81.8908C52.6297 82.9646 52.7273 84.0384 52.7273 85.1122C52.7273 91.067 50.8725 95.9967 47.163 99.9015C43.4535 103.806 38.8166 105.759 33.2523 105.759ZM54.338 75.0086C57.6571 75.0086 60.6832 74.1789 63.4166 72.5194C66.1499 70.8598 68.3463 68.6634 70.0059 65.9301C71.6654 63.1967 72.4952 60.1706 72.4952 56.8515C72.4952 53.5325 71.6654 50.5063 70.0059 47.7729C68.3463 45.0396 66.1499 42.8432 63.4166 41.1836C60.6832 39.5241 57.6571 38.6944 54.338 38.6944C51.019 38.6944 47.9928 39.5241 45.2594 41.1836C42.6237 42.8432 40.4761 45.0396 38.8166 47.7729C37.2547 50.5063 36.4737 53.5325 36.4737 56.8515C36.4737 60.1706 37.2547 63.2456 38.8166 66.0765C40.4761 68.8098 42.6725 71.0063 45.4059 72.6658C48.1392 74.2277 51.1166 75.0086 54.338 75.0086Z" fill="#9D1D1D"/>
</svg>
